<svg xmlns="http://www.w3.org/2000/svg" width="256" height="256" viewBox="0 0 100 100"><rect width="100" height="100" rx="50" fill="#333333"></rect><path d="M33.76 75.15L33.76 75.15Q28.12 75.15 25.76 71.68Q23.41 68.21 23.41 63.23L23.41 63.23Q23.41 59.17 24.72 54.85Q26.03 50.52 28.19 46.72Q30.35 42.93 33.04 40.57Q35.72 38.21 38.47 38.21L38.47 38.21Q39.13 38.21 39.85 38.41Q40.57 38.60 41.22 38.86L41.22 38.86Q40.04 39.91 38.41 42.73Q36.77 45.55 35.33 49.15Q33.89 52.75 32.90 56.29Q31.92 59.82 31.92 62.31L31.92 62.31Q31.92 66.24 33.23 68.01Q34.54 69.78 36.64 69.78L36.64 69.78Q39.39 69.78 43.19 66.83Q46.99 63.89 50.66 59.30L50.66 59.30Q46.99 56.29 44.96 51.38Q42.93 46.46 42.93 41.35L42.93 41.35Q42.93 37.03 44.43 33.23Q45.94 29.43 48.82 27.14Q51.70 24.85 55.76 24.85L55.76 24.85Q61.13 24.85 62.97 27.73Q64.80 30.61 64.80 34.93L64.80 34.93Q64.80 40.04 62.31 46.27Q59.83 52.49 56.03 58.25L56.03 58.25Q58.38 59.56 61.00 59.56L61.00 59.56Q63.10 59.56 65.72 58.71Q68.34 57.86 70.89 55.76Q73.45 53.67 75.02 50.13L75.02 50.13L76.59 51.44Q73.97 57.60 69.19 60.15Q64.41 62.71 60.09 62.71L60.09 62.71Q58.38 62.71 56.81 62.38Q55.24 62.05 53.80 61.40L53.80 61.40Q49.34 67.29 44.04 71.22Q38.73 75.15 33.76 75.15ZM53.01 55.89L53.01 55.89Q56.29 51.05 58.45 45.74Q60.61 40.44 60.61 35.72L60.61 35.72Q60.61 31.92 59.50 30.15Q58.38 28.38 56.68 28.38L56.68 28.38Q54.06 28.38 51.31 32.18Q48.56 35.98 48.56 41.75L48.56 41.75Q48.56 45.55 49.67 49.41Q50.79 53.27 53.01 55.89Z" fill="#fff"></path></svg>